<svg xmlns="http://www.w3.org/2000/svg" viewBox="0 0 64 64">
  <defs>
    <radialGradient id="g" cx="30%" cy="30%" r="70%">
      <stop offset="0" stop-color="#c7fff5"/>
      <stop offset="1" stop-color="#4df0d6"/>
    </radialGradient>
    <linearGradient id="l" x1="0" x2="1">
      <stop offset="0" stop-color="#7c5cff"/>
      <stop offset="1" stop-color="#4df0d6"/>
    </linearGradient>
  </defs>
  <circle cx="32" cy="32" r="30" fill="url(#g)"/>
  <g fill="url(#l)">
    <path d="M18 22c0-2 2-4 4-4h24c2 0 2 2 0 2H22c-2 0-4 2-4 2Z"/>
    <path d="M18 32c0-2 2-4 4-4h24c2 0 2 2 0 2H22c-2 0-4 2-4 2Z"/>
    <path d="M18 42c0-2 2-4 4-4h24c2 0 2 2 0 2H22c-2 0-4 2-4 2Z"/>
  </g>
</svg>
