<?xml version="1.0" encoding="UTF-8"?><svg id="a" xmlns="http://www.w3.org/2000/svg" viewBox="0 0 923.37 195.503"><defs><style>.b{fill:#fbfcff;}</style></defs><path class="b" d="M35.93,92.421H14.133v-23.929h21.798v-34.117l31.274-4.028v38.145h22.982v23.929h-21.56v89.795h-32.696v-89.795Z"/><path class="b" d="M99.189,68.492h32.459v24.166h.474c2.524-8.37,6.315-14.885,11.372-19.547,5.053-4.657,11.291-6.989,18.717-6.989,4.42,0,7.819.634,10.188,1.895v34.591c-4.583-2.843-10.11-4.265-16.585-4.265-6.16,0-11.413,1.777-15.756,5.331-4.346,3.554-7.148,9.281-8.411,17.177v61.364h-32.459v-113.724Z"/><path class="b" d="M238.502,93.843c-6.479,0-11.609,2.132-15.4,6.397s-6.397,11.136-7.819,20.613v61.364h-32.459v-113.724h32.459v20.612h.474c3.791-7.582,8.37-13.304,13.742-17.177,5.368-3.868,12.635-5.805,21.797-5.805,11.528,0,20.768,3.317,27.721,9.951,6.949,6.634,10.424,16.585,10.424,29.853v76.29h-32.696v-67.76c0-13.742-6.082-20.613-18.243-20.613Z"/><path class="b" d="M322.018,178.306c-7.345-4.183-13.19-10.661-17.532-19.428-4.346-8.766-6.516-19.702-6.516-32.814s2.169-24.167,6.516-33.17c4.342-9.003,10.106-15.715,17.296-20.138,7.186-4.42,15.045-6.634,23.574-6.634s15.715,2.014,21.56,6.042c5.842,4.028,9.869,9.121,12.083,15.281h.474V10.918h32.459v171.297h-32.459v-16.348h-.474c-6.319,12.48-17.14,18.717-32.459,18.717-9.003,0-17.177-2.095-24.522-6.279ZM337.655,148.572c4.657,4.898,10.543,7.345,17.651,7.345,6.474,0,12.001-2.091,16.585-6.279,4.579-4.183,7.107-11.172,7.581-20.968v-6.634c-.474-9.003-2.962-15.833-7.463-20.495-4.501-4.657-9.992-6.989-16.466-6.989-7.267,0-13.231,2.884-17.888,8.648-4.661,5.768-6.989,13.546-6.989,23.337s2.329,17.14,6.989,22.034Z"/><path class="b" d="M429.107,180.084c-2.924-2.999-4.383-6.553-4.383-10.662s1.459-7.659,4.383-10.661c2.92-2.999,6.516-4.502,10.78-4.502,4.105,0,7.66,1.503,10.661,4.502,2.999,3.002,4.502,6.556,4.502,10.661s-1.503,7.663-4.502,10.662c-3.001,2.999-6.556,4.501-10.661,4.501-4.265,0-7.86-1.503-10.78-4.501Z"/><path class="b" d="M473.531,92.421h-21.798v-23.929h21.798v-34.117l31.274-4.028v38.145h22.982v23.929h-21.56v89.795h-32.696v-89.795Z"/><path class="b" d="M560.009,177.833c-8.688-4.501-15.6-11.172-20.731-20.02-5.135-8.844-7.7-19.428-7.7-31.748s2.565-23.019,7.7-32.104c5.131-9.081,12.043-15.992,20.731-20.731,8.684-4.738,18.321-7.108,28.904-7.108s20.258,2.37,29.024,7.108c8.767,4.739,15.714,11.65,20.849,20.731,5.131,9.085,7.7,19.783,7.7,32.104,0,12.165-2.487,22.667-7.463,31.511-4.976,8.848-11.81,15.559-20.494,20.139-8.69,4.579-18.48,6.87-29.379,6.87-10.743,0-20.457-2.25-29.142-6.752ZM606.92,148.217c4.42-5.131,6.634-12.595,6.634-22.389,0-9.951-2.251-17.651-6.753-23.101-4.501-5.449-10.466-8.174-17.888-8.174s-13.386,2.725-17.888,8.174c-4.501,5.449-6.752,13.149-6.752,23.101,0,9.795,2.251,17.258,6.752,22.389,4.502,5.134,10.463,7.7,17.888,7.7,7.582,0,13.583-2.565,18.007-7.7Z"/><path class="b" d="M682.025,177.833c-8.688-4.501-15.6-11.172-20.731-20.02-5.135-8.844-7.7-19.428-7.7-31.748s2.565-23.019,7.7-32.104c5.131-9.081,12.043-15.992,20.731-20.731,8.684-4.738,18.321-7.108,28.904-7.108s20.258,2.37,29.024,7.108c8.767,4.739,15.714,11.65,20.849,20.731,5.131,9.085,7.7,19.783,7.7,32.104,0,12.165-2.487,22.667-7.463,31.511-4.976,8.848-11.81,15.559-20.494,20.139-8.69,4.579-18.48,6.87-29.379,6.87-10.743,0-20.457-2.25-29.142-6.752ZM728.936,148.217c4.42-5.131,6.634-12.595,6.634-22.389,0-9.951-2.251-17.651-6.753-23.101-4.501-5.449-10.466-8.174-17.888-8.174s-13.386,2.725-17.888,8.174c-4.501,5.449-6.752,13.149-6.752,23.101,0,9.795,2.251,17.258,6.752,22.389,4.502,5.134,10.463,7.7,17.888,7.7,7.582,0,13.583-2.565,18.007-7.7Z"/><path class="b" d="M779.401,10.918h32.459v171.297h-32.459V10.918Z"/><path class="b" d="M839.107,182.335c-7.426-1.499-12.794-3.436-16.111-5.805l.237-29.615c1.895,2.688,6.433,5.094,13.622,7.226,7.186,2.132,15.282,3.198,24.285,3.198,7.422,0,12.636-.947,15.638-2.843,2.997-1.895,4.501-4.58,4.501-8.056,0-3.157-1.58-5.527-4.738-7.107-3.162-1.577-8.055-3.158-14.69-4.739-7.741-2.051-14.097-4.146-19.073-6.279-4.974-2.132-9.281-5.486-12.912-10.069-3.636-4.58-5.449-10.74-5.449-18.48,0-10.58,3.632-18.835,10.899-24.759,7.263-5.923,18.48-8.885,33.644-8.885,15.319,0,26.614,3.08,33.88,9.24l-.947,27.246c-2.528-3.472-6.834-6.315-12.912-8.529-6.082-2.21-12.994-3.317-20.731-3.317-10.268,0-15.399,2.688-15.399,8.055,0,2.843,1.381,5.016,4.146,6.516,2.761,1.503,7.541,3.358,14.335,5.568,7.582,2.214,13.938,4.542,19.072,6.989,5.131,2.451,9.555,6.16,13.269,11.136,3.709,4.975,5.568,11.413,5.568,19.309,0,11.532-3.992,20.457-11.965,26.773-7.978,6.319-19.784,9.477-35.421,9.477-7.741,0-15.322-.752-22.745-2.25Z"/></svg>