<?xml version="1.0" encoding="UTF-8"?><svg id="a" xmlns="http://www.w3.org/2000/svg" viewBox="0 0 286.641 286.641"><defs><style>.b{fill:#fbfcff;}</style></defs><rect x="-.269" y="-3.291" width="286.547" height="289.672"/><path class="b" d="M160.071,177.133l-10.745,21.738-29.903.151-37.938-62.319c-2.74,2.674-15.741,25.467-17.249,25.842-.913.227-1.138-.548-1.547-1.098-4.374-5.88-7.343-14.112-11.721-20.159l47.753-80.185c3.926,7.196,9.21,13.971,12.269,21.504l-15.84,27.96-.609,3.746,36.019,62.819h29.511Z"/><path class="b" d="M234.347,120.116h-22.879c-2.411-2.271-5.387-10.91-7.285-12.606-.405-.362-.751-.663-1.334-.656h-70.965s-1.587,1.066-1.587,1.066l-14.326,25.443c-4.746-6.409-9.197-13.161-12.91-20.213l16.226-26.846h70.628l-13.927-27.845h24.869l33.49,61.657Z"/><path class="b" d="M202.514,165.862l-23.211,41.768h32.495c-2.303,7.332-8.804,13.362-11.937,20.552h-94.834l12.373-21.111,36.034.223,22.884-41.432h26.195Z"/><path class="b" d="M99.049,224.202c-2.579.078-2.48-3.176-3.159-4.442-8.641-16.128-18.848-31.466-27.226-47.758-.473-3.088,11.2-16.007,12.5-20.059l8.061,12.811,20.794,37.521-10.97,21.927Z"/><polygon class="b" points="177.977 79.675 118.292 79.675 107.018 58.459 165.045 58.459 177.977 79.675"/><polygon class="b" points="235.673 165.862 235.042 168.214 216.441 199.011 192.567 199.011 210.804 165.862 235.673 165.862"/></svg>